<svg  viewBox="0 0 37 37" fill="none" xmlns="http://www.w3.org/2000/svg">
<path d="M34.327 18.4121H31.827C31.826 22.1241 30.33 25.462 27.898 27.897C25.463 30.328 22.126 31.8251 18.414 31.8261C14.703 31.8251 11.365 30.328 8.92902 27.897C6.49802 25.461 5.002 22.1241 5 18.4121C5.002 14.7001 6.49802 11.363 8.92902 8.92804C11.365 6.49704 14.703 5.001 18.414 5C22.126 5.001 25.464 6.49704 27.899 8.92804C30.33 11.363 31.826 14.7001 31.827 18.4121H34.327H36.827C36.826 8.24105 28.584 0.00100145 18.414 1.45075e-06C13.338 -0.00199855 8.71901 2.06403 5.39401 5.39203C2.06501 8.71603 -0.000999637 13.3351 3.62854e-07 18.4121C0.00200036 28.583 8.245 36.8241 18.414 36.826C28.584 36.8241 36.826 28.583 36.827 18.4121H34.327Z" fill="#03FFC5"/>
</svg>
