<svg width="21" height="21" viewBox="0 0 21 21" fill="none" xmlns="http://www.w3.org/2000/svg">
<path d="M19.4618 15.4518L4.20979 1.14681C3.20279 0.202805 1.62077 0.252819 0.676774 1.26082C-0.268226 2.26782 -0.217189 3.84978 0.789811 4.79378L16.0418 19.0988C17.0488 20.0438 18.6308 19.9928 19.5758 18.9858C20.5198 17.9788 20.4698 16.3968 19.4618 15.4518Z" fill="#00160A"/>
<path d="M4.79378 19.4618L19.1008 4.20976C20.0458 3.20276 19.9948 1.6208 18.9878 0.676803C17.9808 -0.268197 16.3988 -0.217221 15.4538 0.789779L1.14778 16.0418C0.202782 17.0488 0.253819 18.6308 1.26082 19.5748C2.26782 20.5198 3.84978 20.4688 4.79378 19.4618Z" fill="#00160A"/>
</svg>
