<svg  viewBox="0 0 21 21" fill="none" xmlns="http://www.w3.org/2000/svg">
<path d="M19.4618 15.452L4.20979 1.14699C3.20279 0.202988 1.62077 0.253002 0.676774 1.261C-0.268226 2.268 -0.217189 3.84996 0.789811 4.79396L16.0418 19.099C17.0488 20.044 18.6308 19.993 19.5758 18.986C20.5198 17.979 20.4698 16.397 19.4618 15.452Z" fill="#03FFC5"/>
<path d="M4.79384 19.4618L19.1008 4.20976C20.0458 3.20276 19.9949 1.6208 18.9879 0.676803C17.9809 -0.268197 16.3989 -0.217221 15.4539 0.789779L1.14784 16.0418C0.202843 17.0488 0.25388 18.6308 1.26088 19.5748C2.26788 20.5198 3.84984 20.4688 4.79384 19.4618Z" fill="#03FFC5"/>
</svg>
