<svg width="21" height="37" viewBox="0 0 21 37" fill="none" xmlns="http://www.w3.org/2000/svg">
<path d="M18.414 31.682C14.699 31.681 11.359 30.189 8.92502 27.77C6.49402 25.346 5.001 22.028 5 18.34C5.001 14.652 6.49402 11.335 8.92502 8.911C11.359 6.492 14.698 5.00099 18.414 4.99899C19.795 4.99899 20.914 3.88 20.914 2.5C20.914 1.119 19.795 1.45853e-06 18.414 1.45853e-06C13.34 -0.00199854 8.723 2.053 5.397 5.368C2.068 8.677 -0.00199855 13.28 1.44797e-06 18.34C-0.00199855 23.4 2.068 28.003 5.397 31.313C8.723 34.628 13.34 36.683 18.414 36.682C19.795 36.682 20.914 35.563 20.914 34.182C20.914 32.801 19.795 31.682 18.414 31.682Z" fill="#03FFC5"/>
</svg>
