<svg  viewBox="0 0 18 18" fill="none" xmlns="http://www.w3.org/2000/svg">
<path d="M12.105 14.07L10.775 11.953C10.143 12.35 9.46001 12.532 8.77301 12.533C8.14701 12.533 7.52302 12.376 6.97302 12.078C6.42102 11.779 5.944 11.348 5.581 10.772V10.77C5.184 10.138 5.001 9.45501 5 8.76801C5 8.14301 5.15702 7.52001 5.45502 6.96901C5.75302 6.41801 6.18501 5.941 6.76001 5.578C7.39001 5.184 8.07097 5.001 8.75897 5C9.38497 5 10.01 5.157 10.561 5.455C11.113 5.754 11.591 6.186 11.954 6.761L11.955 6.763C12.35 7.392 12.532 8.074 12.533 8.761C12.534 9.387 12.376 10.011 12.078 10.563C11.779 11.115 11.347 11.593 10.773 11.955L10.775 11.953L12.105 14.07L13.437 16.186C14.754 15.358 15.786 14.222 16.478 12.938C17.172 11.652 17.533 10.217 17.533 8.761C17.535 7.167 17.095 5.541 16.185 4.099L16.186 4.10001C15.358 2.78201 14.222 1.748 12.937 1.056C11.651 0.362001 10.215 1.70447e-06 8.75897 1.70447e-06C7.16597 -0.000998296 5.54 0.43801 4.099 1.34601C2.781 2.17301 1.74797 3.308 1.05597 4.593C0.361971 5.878 1.70055e-06 7.31201 1.70055e-06 8.76801C-0.000998299 10.363 0.439024 11.99 1.34802 13.433V13.432C2.17502 14.75 3.31097 15.784 4.59497 16.477C5.88097 17.171 7.31601 17.533 8.77301 17.533C10.366 17.534 11.992 17.095 13.435 16.187L13.437 16.186L12.105 14.07Z" fill="white"/>
</svg>
