<svg width="50" height="50" viewBox="0 0 50 50" fill="none" xmlns="http://www.w3.org/2000/svg">
<path d="M2.52692 23.2945L4.16707 25.1813L26.1706 6.05387L43.6572 26.1699L23.5404 43.6571L4.4137 21.6543L2.52692 23.2945L0.640148 24.9346L21.407 48.8242C21.8394 49.3216 22.4634 49.6324 23.1194 49.6783C23.7768 49.7243 24.4374 49.5025 24.934 49.0708L48.8243 28.3033C49.3209 27.8716 49.6324 27.2483 49.6776 26.5916C49.7242 25.9349 49.5032 25.2737 49.0709 24.7764L28.304 0.886801C27.8723 0.390202 27.2483 0.0793137 26.5909 0.0333424C25.9349 -0.01253 25.2737 0.208487 24.7771 0.640174L0.886774 21.4077C0.390175 21.8394 0.0793023 22.4634 0.0326751 23.1201C-0.0125414 23.7768 0.208461 24.438 0.640148 24.9346L2.52692 23.2945Z" fill="white"/>
</svg>
