<svg viewBox="0 0 48 45" fill="none" xmlns="http://www.w3.org/2000/svg">
<path d="M31.8963 25.217L33.8677 26.7544L46.7735 10.2144C47.3228 9.51041 47.4547 8.56625 47.1192 7.73865C46.7847 6.91067 46.0321 6.32389 45.1474 6.20031L24.3772 3.3019L3.60015 0.394405C2.71636 0.270452 1.8322 0.628753 1.28293 1.33278C0.733671 2.0368 0.60177 2.98096 0.937221 3.80856L8.80958 23.248L8.8092 23.2471L16.677 42.6938C17.0115 43.5218 17.7638 44.1077 18.6485 44.2312C19.5323 44.3552 20.4168 43.9978 20.9661 43.2938L33.8677 26.7544L31.8963 25.217L29.9253 23.6783L19.6875 36.8031L13.4444 21.3722L7.19683 5.94633L23.6858 8.25347L40.1666 10.5541L29.9253 23.6783L31.8963 25.217Z" fill="#03FFC5"/>
</svg>
