<svg width="38" height="66" viewBox="0 0 38 66" fill="none" xmlns="http://www.w3.org/2000/svg">
<path d="M27.2867 45.0373C27.4516 45.505 27.4699 45.8155 27.4304 46.1513C27.3922 46.444 27.2903 46.7695 27.0907 47.1624C26.7485 47.8478 26.0871 48.6972 25.2593 49.636C24.028 51.06 22.4307 52.6619 21.2824 54.8198C20.7143 55.8992 20.2731 57.1431 20.1413 58.5234C20.0047 59.9023 20.1931 61.3906 20.7418 62.8893C21.2141 64.1871 22.6483 64.8559 23.9461 64.3835C25.2438 63.9112 25.9126 62.477 25.4402 61.1792C25.1637 60.4137 25.0824 59.8015 25.1017 59.2465C25.1201 58.7619 25.2179 58.3113 25.3948 57.8383C25.7023 57.0166 26.2827 56.1317 27.0465 55.1982C28.1828 53.7854 29.7013 52.3409 30.9216 50.5037C31.5249 49.5796 32.0594 48.5221 32.3087 47.2831C32.5628 46.0487 32.477 44.655 31.9851 43.3272C31.5132 42.0304 30.0776 41.361 28.7809 41.833C27.4831 42.3053 26.8147 43.7405 27.2867 45.0373Z" fill="#AFAFAF" fill-opacity="0.2"/>
<path d="M17.3435 17.7185C17.5081 18.1854 17.5267 18.4968 17.4872 18.8326C17.4487 19.1244 17.3471 19.4507 17.1475 19.8437C16.8053 20.5291 16.1445 21.3772 15.317 22.3169C14.0855 23.74 12.4889 25.3416 11.3407 27.4994C10.7726 28.5788 10.3312 29.8218 10.1984 31.2025C10.0627 32.581 10.251 34.0694 10.7997 35.5681C11.272 36.8658 12.7063 37.5346 14.004 37.0623C15.3017 36.5899 15.9705 35.1557 15.4982 33.858C15.2217 33.0924 15.1404 32.4802 15.1592 31.9264C15.1785 31.4416 15.2759 30.99 15.4531 30.518C15.7597 29.6966 16.3401 28.8117 17.1038 27.8782C18.2401 26.4654 19.759 25.0218 20.978 23.1841C21.5817 22.2609 22.1158 21.2024 22.3651 19.9634C22.6196 18.73 22.5338 17.3363 22.0419 16.0084C21.5696 14.7107 20.1344 14.0423 18.8377 14.5143C17.54 14.9866 16.8712 16.4208 17.3435 17.7185Z" fill="#AFAFAF" fill-opacity="0.2"/>
<path d="M31.9851 43.3271C31.5675 42.1681 30.89 41.1632 30.0637 40.4104C29.3436 39.7477 28.5348 39.277 27.7283 38.9352C26.3115 38.3377 24.8922 38.0902 23.5429 37.8769C21.5217 37.5749 19.634 37.3383 18.2972 36.7766C17.625 36.4998 17.095 36.1692 16.65 35.7331C16.2071 35.2941 15.8211 34.7365 15.4982 33.8579C15.0258 32.5602 13.5916 31.8914 12.2939 32.3638C10.9962 32.8361 10.3274 34.2703 10.7997 35.568C11.2736 36.8758 11.9481 38.001 12.7714 38.9092C13.49 39.7054 14.3131 40.3296 15.161 40.8053C16.651 41.6389 18.1934 42.0406 19.6325 42.3192C21.7889 42.7209 23.7857 42.8859 25.1137 43.3007C25.7803 43.5008 26.2512 43.7391 26.5634 43.9915C26.8761 44.2513 27.0849 44.5062 27.2867 45.0372C27.759 46.335 29.1932 47.0038 30.491 46.5314C31.7877 46.0594 32.4575 44.6249 31.9851 43.3271Z" fill="#AFAFAF" fill-opacity="0.2"/>
<path d="M22.0416 16.0074C21.624 14.8484 20.9455 13.8439 20.1195 13.092C19.3998 12.4303 18.591 11.9595 17.7841 11.6168C16.3677 11.0203 14.9484 10.7728 13.6 10.5591C11.5779 10.2575 9.6911 10.0205 8.35437 9.45885C7.68217 9.18206 7.15248 8.85235 6.70783 8.41719C6.26463 7.97724 5.87893 7.42055 5.55632 6.54297L3.21335 7.3947L5.66068 6.92321C5.62534 6.74133 5.58026 6.60875 5.55632 6.54297L3.21335 7.3947L5.66068 6.92321C5.39936 5.56785 4.08886 4.68054 2.73315 4.94092C1.37685 5.20259 0.4899 6.51407 0.751221 7.86943C0.78656 8.05131 0.83324 8.18543 0.857524 8.25215C1.33105 9.55901 2.00591 10.6851 2.82918 11.5933C3.54784 12.3895 4.3706 13.0127 5.21843 13.4884C6.70714 14.3215 8.24958 14.7231 9.68866 15.0018C11.8451 15.4034 13.8419 15.5684 15.1708 15.9829C15.8365 16.1833 16.3074 16.4217 16.6205 16.6738C16.9323 16.9338 17.142 17.1884 17.3438 17.7194C17.8161 19.0172 19.251 19.6847 20.5477 19.2127C21.8455 18.7403 22.5139 17.3052 22.0416 16.0074Z" fill="#AFAFAF" fill-opacity="0.2"/>
</svg>
