<svg width="60" height="54" viewBox="0 0 60 54" fill="none" xmlns="http://www.w3.org/2000/svg">
<path d="M20.9532 38.5413C20.5646 38.8495 20.277 38.9679 19.9467 39.0398C19.6575 39.099 19.3165 39.1087 18.88 39.0479C18.1205 38.9474 17.102 38.5986 15.9449 38.1215C14.1977 37.421 12.1629 36.4321 9.74881 36.049C8.54328 35.8633 7.22348 35.8511 5.87542 36.1758C4.52717 36.4956 3.18131 37.1583 1.94288 38.165C0.869639 39.0341 0.704222 40.6079 1.57331 41.6812C2.44241 42.7544 4.01624 42.9198 5.08948 42.0507C5.72334 41.54 6.27563 41.2639 6.80676 41.1014C7.27087 40.9611 7.72877 40.9068 8.23361 40.9201C9.11068 40.9433 10.1363 41.204 11.2676 41.6222C12.9734 42.2366 14.8336 43.2022 16.9679 43.7578C18.0381 44.0274 19.2121 44.1885 20.4647 44.0208C21.7146 43.8592 23.0044 43.3243 24.0998 42.427C25.1722 41.5585 25.3378 39.9833 24.4693 38.9108C23.6003 37.8376 22.0256 37.6728 20.9532 38.5413Z" fill="#F5F5F5"/>
<path d="M43.5463 20.2457C43.1585 20.5533 42.8701 20.6723 42.5398 20.7443C42.2514 20.8028 41.9097 20.8131 41.4731 20.7523C40.7137 20.6518 39.6966 20.3032 38.5387 19.8267C36.7922 19.1256 34.7581 18.1374 32.344 17.7543C31.1385 17.5686 29.8195 17.5558 28.4708 17.8798C27.1232 18.2003 25.7773 18.863 24.5388 19.8697C23.4656 20.7388 23.3002 22.3126 24.1693 23.3858C25.0384 24.4591 26.6122 24.6245 27.6854 23.7554C28.3193 23.2447 28.8716 22.9686 29.4013 22.806C29.8661 22.6664 30.3248 22.6116 30.8288 22.6254C31.7053 22.6479 32.7308 22.9085 33.8622 23.3268C35.568 23.9412 37.4274 24.9074 39.5619 25.4616C40.6312 25.7318 41.806 25.8923 43.0586 25.7246C44.3077 25.5637 45.5975 25.0288 46.6929 24.1314C47.7662 23.2623 47.931 21.6877 47.0625 20.6153C46.1934 19.542 44.6196 19.3766 43.5463 20.2457Z" fill="#F5F5F5"/>
<path d="M24.0998 42.427C25.0597 41.6548 25.7893 40.687 26.232 39.6606C26.6242 38.764 26.806 37.846 26.8665 36.9722C26.9702 35.4381 26.7421 34.0155 26.5046 32.6702C26.132 30.6609 25.7412 28.7989 25.8371 27.3522C25.8799 26.6265 26.02 26.0177 26.2875 25.4549C26.5584 24.8933 26.9599 24.3467 27.6854 23.7554C28.7587 22.8863 28.9241 21.3124 28.055 20.2392C27.1859 19.166 25.6121 19.0005 24.5388 19.8696C23.4566 20.7435 22.6123 21.7476 22.0216 22.8217C21.5028 23.7604 21.1806 24.7418 21.0068 25.6984C20.7037 27.3786 20.826 28.9678 21.0311 30.4191C21.3534 32.5889 21.8475 34.5306 21.8876 35.9213C21.9155 36.6167 21.8435 37.1396 21.7064 37.5169C21.5626 37.8971 21.3896 38.1776 20.9532 38.5412C19.8799 39.4103 19.7145 40.9842 20.5836 42.0574C21.4521 43.1299 23.0265 43.2961 24.0998 42.427Z" fill="#F5F5F5"/>
<path d="M46.6938 24.1307C47.6537 23.3585 48.3826 22.3899 48.8246 21.3642C49.2159 20.4682 49.3977 19.5502 49.4591 18.6758C49.5619 17.1423 49.3339 15.7198 49.097 14.3753C48.7238 12.3651 48.3336 10.504 48.4295 9.0572C48.4723 8.33151 48.6116 7.72333 48.8783 7.16123C49.15 6.59895 49.5508 6.05302 50.2755 5.46228L48.7074 3.52425L49.95 5.68475C50.1104 5.59212 50.2211 5.50633 50.2755 5.46228L48.7074 3.52425L49.95 5.68475C51.1464 4.9964 51.5587 3.46841 50.8711 2.27134C50.1822 1.07412 48.6534 0.662472 47.4569 1.35082C47.2965 1.44345 47.1848 1.53125 47.1297 1.57593C46.0482 2.44913 45.2032 3.45383 44.6125 4.52793C44.0936 5.46666 43.7722 6.44749 43.5985 7.40401C43.2955 9.08283 43.4178 10.672 43.6229 12.1234C43.9452 14.2931 44.4393 16.2349 44.4801 17.6263C44.5073 18.321 44.4352 18.8438 44.2988 19.2219C44.1544 19.6014 43.982 19.8826 43.5456 20.2463C42.4723 21.1153 42.3083 22.6893 43.1768 23.7618C44.0459 24.835 45.6205 24.9998 46.6938 24.1307Z" fill="#F5F5F5"/>
</svg>
