<svg width="21" height="21" viewBox="0 0 21 21" fill="none" xmlns="http://www.w3.org/2000/svg">
<path d="M19.4619 15.4518L4.20992 1.14679C3.20292 0.202789 1.62093 0.252772 0.675926 1.26077C-0.268074 2.26777 -0.21706 3.84979 0.78994 4.79379L16.0419 19.0988C17.0489 20.0428 18.6309 19.9928 19.5749 18.9858C20.5199 17.9788 20.4689 16.3958 19.4619 15.4518Z" fill="white"/>
<path d="M4.79384 19.4618L19.1009 4.20979C20.0449 3.20279 19.9949 1.6208 18.9879 0.676803C17.9809 -0.268197 16.3989 -0.217221 15.4539 0.789779L1.14687 16.0418C0.202872 17.0488 0.252848 18.6308 1.25985 19.5748C2.26685 20.5198 3.84884 20.4688 4.79384 19.4618Z" fill="white"/>
</svg>
