<svg width="15" height="15" viewBox="0 0 15 15" fill="none" xmlns="http://www.w3.org/2000/svg">
<path d="M14.4147 11.3245L3.11804 1.20264C2.37219 0.534692 1.20045 0.570081 0.501262 1.28332C-0.198665 1.99585 -0.160864 3.11521 0.584984 3.78316L11.8816 13.9051C12.6274 14.5738 13.7992 14.5376 14.4991 13.8251C15.1983 13.1126 15.1612 11.9932 14.4147 11.3245Z" fill="#03FFC5"/>
<path d="M3.55145 14.1626L14.1481 3.37058C14.8481 2.65805 14.8103 1.53869 14.0645 0.870736C13.3186 0.202075 12.1469 0.238145 11.4469 0.950675L0.850993 11.7427C0.151066 12.4552 0.188868 13.5745 0.934716 14.2425C1.68056 14.9112 2.85226 14.8751 3.55145 14.1626Z" fill="#03FFC5"/>
</svg>
