<svg width="49" height="39" viewBox="0 0 49 39" fill="none" xmlns="http://www.w3.org/2000/svg">
<path d="M44.6934 0.837891H4.30664C1.93492 0.837891 0 2.77073 0 5.14453V33.8555C0 36.2212 1.92631 38.1621 4.30664 38.1621H44.6934C47.0592 38.1621 49 36.2358 49 33.8555V5.14453C49 2.77875 47.0737 0.837891 44.6934 0.837891ZM44.0987 3.70901L24.5913 23.2165L4.91522 3.70901H44.0987ZM2.87109 33.261V5.72536L16.6982 19.4338L2.87109 33.261ZM4.90124 35.291L18.737 21.4552L23.585 26.2616C24.1463 26.818 25.0519 26.8162 25.6108 26.2572L30.3379 21.5301L44.0988 35.291H4.90124ZM46.1289 33.2609L32.3681 19.5L46.1289 5.73902V33.2609Z" fill="white"/>
</svg>
