<svg viewBox="0 0 25 26" fill="none" xmlns="http://www.w3.org/2000/svg">
<path d="M8.3622 20.1191C8.3622 20.2285 8.25284 20.3066 8.09664 20.3066C7.94044 20.3066 7.8155 20.3066 7.8155 20.1191C7.8155 19.9317 7.94048 19.9317 8.08105 19.9317C8.22163 19.9317 8.3622 20.0098 8.3622 20.1191ZM6.80023 19.8849C6.80023 19.9942 6.8002 20.1191 7.01888 20.1504C7.07511 20.1769 7.13918 20.1801 7.19854 20.1598C7.25633 20.1394 7.30474 20.0972 7.33129 20.041C7.33129 19.9317 7.33127 19.8224 7.11259 19.7755C6.89392 19.7286 6.83147 19.7755 6.80023 19.8849ZM9.0182 19.8067C8.87762 19.8067 8.78393 19.9317 8.79955 20.0566C8.81517 20.1816 8.94013 20.2285 9.09633 20.1972C9.25252 20.166 9.3306 20.0566 9.31498 19.9473C9.29936 19.838 9.1744 19.7911 9.0182 19.8067ZM12.3452 0.000934294C10.6973 -0.0146854 9.06509 0.302382 7.54217 0.934981C6.02081 1.56602 4.64311 2.49851 3.49038 3.67468C2.33764 4.8524 1.43486 6.25039 0.836628 7.78424C0.238393 9.31966 -0.0443442 10.9597 0.00563888 12.6061C-0.0380963 15.3036 0.761628 17.9464 2.29392 20.1676C3.82622 22.3887 6.01298 24.0756 8.54963 24.9925C9.19004 25.1018 9.42433 24.6957 9.42433 24.3677C9.42433 24.0397 9.42433 22.2747 9.42433 21.2438C9.42433 21.2438 5.89429 22.0247 5.14454 19.6818C5.14454 19.6818 4.58221 18.1198 3.75436 17.7918C3.75436 17.7918 2.59853 16.9796 3.83249 16.9952C4.23704 17.0499 4.62281 17.1982 4.95864 17.4294C5.29446 17.659 5.57251 17.9652 5.76932 18.3229C5.93333 18.6431 6.15982 18.9274 6.43628 19.157C6.71431 19.385 7.03453 19.5553 7.37972 19.6568C7.72492 19.7583 8.08731 19.7864 8.445 19.7427C8.80113 19.699 9.14472 19.5818 9.45555 19.4006C9.5149 18.7493 9.79607 18.137 10.2522 17.6668C7.44062 17.3388 4.59784 16.9327 4.59784 11.95C4.56816 11.3877 4.65873 10.8238 4.86335 10.299C5.06797 9.77417 5.38197 9.29781 5.78495 8.90419C5.4054 7.76083 5.44911 6.51903 5.90989 5.40534C6.97203 5.06171 9.39311 6.79552 9.39311 6.79552C11.4612 6.21291 13.651 6.21291 15.7191 6.79552C15.7191 6.79552 18.1401 5.06171 19.2023 5.40534C19.6724 6.51591 19.7177 7.76239 19.3272 8.90419C19.7443 9.29312 20.0754 9.76483 20.2988 10.2897C20.5221 10.8145 20.6331 11.3799 20.6237 11.95C20.6237 16.9483 17.6559 17.3388 14.8444 17.6668C15.1271 17.9839 15.3426 18.3557 15.477 18.7587C15.6113 19.1601 15.6613 19.5865 15.6254 20.0098C15.6254 21.7592 15.6254 23.9147 15.6254 24.3364C15.6238 24.4426 15.6488 24.5457 15.6972 24.6395C15.7441 24.7347 15.8143 24.816 15.9003 24.8769C15.9862 24.9378 16.0846 24.9769 16.1892 24.9925C16.2939 25.0065 16.4001 24.9972 16.5001 24.9613C19.032 24.0522 21.2156 22.3699 22.7401 20.1535C24.2646 17.9355 25.0534 15.2958 24.9972 12.6061C25.0112 10.9426 24.6942 9.29309 24.0631 7.75455C23.4321 6.21444 22.4996 4.81806 21.3219 3.64345C20.1426 2.46885 18.7415 1.54261 17.2014 0.917821C15.6597 0.29147 14.0087 -0.0193713 12.3452 0.000934294ZM4.91025 17.823C4.91025 17.823 4.91025 17.9948 4.91025 18.0885C4.92744 18.1057 4.9477 18.1198 4.97113 18.1292C4.99455 18.1385 5.01802 18.1432 5.04301 18.1432C5.068 18.1432 5.09141 18.1385 5.11484 18.1292C5.13827 18.1198 5.15858 18.1057 5.17576 18.0885C5.17576 18.0885 5.17576 17.9167 5.17576 17.8074C5.17576 17.6981 4.97273 17.7606 4.91025 17.823ZM4.36355 17.4013C4.36355 17.4013 4.36352 17.5575 4.47286 17.6043C4.48535 17.62 4.50254 17.6341 4.52129 17.6434C4.54003 17.6512 4.5619 17.6559 4.58221 17.6559C4.60251 17.6559 4.62438 17.6512 4.64312 17.6434C4.66187 17.6341 4.67906 17.62 4.69155 17.6043C4.69155 17.6043 4.69154 17.4482 4.58221 17.4013C4.47287 17.3545 4.39479 17.3545 4.36355 17.4013ZM5.92553 19.2444C5.92553 19.2444 5.92553 19.4631 5.92553 19.5724C5.92553 19.6818 6.19105 19.6974 6.25353 19.5724C6.31601 19.4475 6.25353 19.3538 6.25353 19.2444C6.25353 19.1351 6.05045 19.1663 5.98797 19.2444H5.92553ZM5.3476 18.479C5.3476 18.479 5.3476 18.6665 5.3476 18.7915C5.3476 18.9164 5.56624 18.9632 5.64433 18.9164C5.68338 18.8711 5.70525 18.8133 5.70525 18.7524C5.70525 18.6915 5.68338 18.6337 5.64433 18.5884C5.56624 18.4634 5.44132 18.4166 5.3476 18.479Z" fill="white"/>
</svg>
