<svg viewBox="0 0 25 26" fill="none" xmlns="http://www.w3.org/2000/svg">
<path d="M22.9995 0.00669771H2.14057C1.87183 -0.00580202 1.60311 0.0348045 1.34999 0.125428C1.09687 0.217613 0.864036 0.358258 0.665602 0.539504C0.465607 0.72075 0.304695 0.939475 0.190635 1.18322C0.0765753 1.42696 0.0124997 1.69104 0 1.95978V22.8656C0.0156247 23.4281 0.24685 23.964 0.643716 24.3624C1.04214 24.7593 1.57808 24.9905 2.14057 25.0061H22.9995C23.5464 24.9811 24.062 24.7436 24.437 24.3436C24.8104 23.9437 25.012 23.4124 24.9995 22.8656V1.95978C25.0041 1.69729 24.9541 1.4379 24.8557 1.19571C24.7557 0.953531 24.6073 0.734805 24.4213 0.551997C24.2339 0.369188 24.0104 0.226995 23.7667 0.133248C23.5214 0.0394996 23.2604 -0.00423955 22.9995 0.00669771ZM7.81233 20.85H4.1718V9.7096H7.81233V20.85ZM6.07801 8.02215C5.82333 8.03153 5.57019 7.98778 5.33426 7.89403C5.09833 7.80028 4.88425 7.65811 4.70456 7.47843C4.52644 7.29718 4.38582 7.08155 4.29363 6.84406C4.20301 6.60813 4.16087 6.35499 4.1718 6.1003C4.16087 5.84406 4.20303 5.58784 4.29678 5.34878C4.39053 5.10816 4.53272 4.89094 4.71553 4.71126C4.89834 4.53001 5.11553 4.38942 5.35615 4.29723C5.59677 4.20505 5.853 4.16444 6.10925 4.1785C6.36393 4.16913 6.61702 4.21288 6.85295 4.30663C7.08889 4.40037 7.30297 4.54254 7.48265 4.72223C7.66077 4.90347 7.80139 5.11909 7.89358 5.35502C7.9842 5.59252 8.02639 5.84562 8.01546 6.1003C8.02639 6.35655 7.98418 6.61282 7.89043 6.85188C7.79669 7.0925 7.65454 7.3081 7.47173 7.48935C7.28892 7.67059 7.07173 7.81119 6.83111 7.90338C6.5905 7.99556 6.33426 8.03465 6.07801 8.02215ZM20.8433 20.85H17.1871V14.7564C17.1871 13.3033 16.6715 12.3033 15.3747 12.3033C14.9715 12.3064 14.5794 12.4345 14.2528 12.6705C13.9247 12.9048 13.6794 13.2346 13.5466 13.6158C13.445 13.9017 13.4028 14.2049 13.4216 14.5064V20.85H9.82792V9.7096H13.4216V11.2721C13.7403 10.6846 14.2169 10.1971 14.795 9.86428C15.3747 9.52991 16.034 9.36274 16.7028 9.38149C19.0621 9.38149 20.8433 10.944 20.8433 14.272V20.85Z" fill="white"/>
</svg>
