<svg viewBox="0 0 21 20" fill="none" xmlns="http://www.w3.org/2000/svg">
<path d="M20.4976 0.481445C20.2711 0.266352 19.9873 0.115377 19.6757 0.0444414C19.3653 -0.0253494 19.0405 -0.0127843 18.7361 0.0810329L1.20452 5.6643C0.879773 5.7627 0.592141 5.95028 0.378838 6.20542C0.165534 6.45941 0.0361456 6.76836 0.00618727 7.09214C-0.0225728 7.41707 0.0493323 7.74199 0.213504 8.02801C0.377675 8.3129 0.626911 8.54627 0.928891 8.69615L8.20279 12.1285L11.7978 19.0961C11.9428 19.3684 12.1632 19.5973 12.4364 19.7574C12.7097 19.9176 13.0236 20.0011 13.3436 20H13.4634C13.8061 19.976 14.1333 19.8535 14.4029 19.6499C14.6725 19.4462 14.8716 19.1694 14.9734 18.8559L20.9052 2.16332C21.0106 1.875 21.0286 1.56382 20.9567 1.26635C20.8848 0.967732 20.7253 0.696538 20.4976 0.481445ZM1.94748 7.24319L17.2501 2.36926L8.75401 10.481L1.94748 7.24319ZM13.4275 18.1923L10.0242 11.6937L18.5204 3.58201L13.4275 18.1923Z" fill="black"/>
</svg>
