<svg  viewBox="0 0 32 26" fill="none" xmlns="http://www.w3.org/2000/svg">
<path d="M27.9498 6.30963C27.9498 6.57448 27.9498 6.85494 27.9498 7.11979C27.9641 9.47229 27.5056 11.8045 26.5982 13.981C25.6908 16.1574 24.3549 18.1345 22.6666 19.7984C20.9782 21.4623 18.9721 22.7787 16.7636 23.673C14.5551 24.5673 12.1885 25.019 9.80142 25.005C6.32667 25.0144 2.92303 24.036 0 22.1851C0.521688 22.1851 1.01176 22.1851 1.58087 22.1851C4.44699 22.1851 7.23091 21.2364 9.48523 19.4899C8.14939 19.4775 6.8515 19.049 5.77809 18.2654C4.70467 17.4817 3.91108 16.3833 3.50954 15.1276C3.91266 15.1915 4.31895 15.2226 4.72682 15.2211C5.29119 15.2164 5.85397 15.1495 6.40254 15.0186C4.97501 14.7319 3.69135 13.967 2.76812 12.853C1.84647 11.7407 1.34375 10.3478 1.34375 8.91138C2.22746 9.39122 3.21235 9.66388 4.22095 9.70595C3.33092 9.12639 2.60212 8.33655 2.0994 7.40801C1.59669 6.48103 1.33743 5.44499 1.34375 4.39338C1.34533 3.29814 1.64094 2.22471 2.19741 1.27748C3.79725 3.2218 5.79233 4.81244 8.05614 5.94819C10.3184 7.08238 12.7988 7.73671 15.3345 7.86758C15.2349 7.39552 15.1811 6.91569 15.1764 6.43429C15.1353 5.1521 15.4973 3.8886 16.2118 2.81517C16.9264 1.7433 17.9587 0.914459 19.1697 0.4424C20.3806 -0.0296592 21.7101 -0.121552 22.9748 0.177575C24.2411 0.478259 25.3825 1.15592 26.2425 2.11874C27.6732 1.83519 29.0422 1.3086 30.2895 0.560786C29.8137 2.01435 28.8114 3.24518 27.4756 4.01948C28.7466 3.88394 29.9876 3.55824 31.159 3.05347C30.2927 4.30139 29.224 5.40134 27.9973 6.30963H27.9498Z" fill="white"/>
</svg>
